<svg width="22" height="22" viewBox="0 0 22 22" fill="none" xmlns="http://www.w3.org/2000/svg">
<path d="M20.1667 7.79166C20.1667 11.0825 17.4992 13.75 14.2083 13.75C14.0525 13.75 13.8875 13.7408 13.7317 13.7317C13.5025 10.8258 11.1742 8.49749 8.26832 8.26832C8.25916 8.11248 8.25 7.94749 8.25 7.79166C8.25 4.50083 10.9175 1.83333 14.2083 1.83333C17.4992 1.83333 20.1667 4.50083 20.1667 7.79166Z" fill="#E1E1E1"/>
<path d="M13.75 14.2083C13.75 17.4992 11.0825 20.1667 7.79168 20.1667C4.50084 20.1667 1.83334 17.4992 1.83334 14.2083C1.83334 10.9175 4.50084 8.25 7.79168 8.25C7.94751 8.25 8.1125 8.25916 8.26833 8.26832C11.1742 8.49749 13.5025 10.8258 13.7317 13.7317C13.7409 13.8875 13.75 14.0525 13.75 14.2083Z" fill="#E1E1E1"/>
<path d="M5.12417 1.83333H2.75001C2.24584 1.83333 1.83334 2.24583 1.83334 2.74999V5.12416C1.83334 5.93999 2.82334 6.35248 3.40084 5.77498L5.775 3.40082C6.34333 2.82332 5.94001 1.83333 5.12417 1.83333Z" fill="#E1E1E1"/>
<path d="M16.8758 20.1667H19.25C19.7542 20.1667 20.1667 19.7542 20.1667 19.25V16.8758C20.1667 16.06 19.1767 15.6475 18.5992 16.225L16.225 18.5992C15.6567 19.1767 16.06 20.1667 16.8758 20.1667Z" fill="#E1E1E1" stroke="white" stroke-width="1.5" stroke-linecap="round" stroke-linejoin="round"/>
</svg>
