<svg width="22" height="22" viewBox="0 0 22 22" fill="none" xmlns="http://www.w3.org/2000/svg">
<path d="M20.1667 7.79168C20.1667 11.0825 17.4992 13.75 14.2083 13.75C14.0525 13.75 13.8875 13.7409 13.7317 13.7317C13.5025 10.8259 11.1742 8.4975 8.26832 8.26833C8.25916 8.1125 8.25 7.94751 8.25 7.79168C8.25 4.50084 10.9175 1.83334 14.2083 1.83334C17.4992 1.83334 20.1667 4.50084 20.1667 7.79168Z" stroke="#E1E1E1" stroke-width="1.5" stroke-linecap="round" stroke-linejoin="round"/>
<path d="M13.75 14.2083C13.75 17.4992 11.0825 20.1667 7.79165 20.1667C4.50081 20.1667 1.83331 17.4992 1.83331 14.2083C1.83331 10.9175 4.50081 8.25 7.79165 8.25C7.94748 8.25 8.11247 8.25916 8.2683 8.26832C11.1741 8.49749 13.5025 10.8258 13.7317 13.7317C13.7408 13.8875 13.75 14.0525 13.75 14.2083Z" stroke="#E1E1E1" stroke-width="1.5" stroke-linecap="round" stroke-linejoin="round"/>
<path d="M5.12414 1.83334H2.74998C2.24581 1.83334 1.83331 2.24584 1.83331 2.75001V5.12417C1.83331 5.94001 2.82331 6.3525 3.40081 5.775L5.77497 3.40084C6.3433 2.82334 5.93998 1.83334 5.12414 1.83334Z" stroke="#E1E1E1" stroke-width="1.5" stroke-linecap="round" stroke-linejoin="round"/>
<path d="M16.8758 20.1667H19.25C19.7541 20.1667 20.1666 19.7542 20.1666 19.25V16.8758C20.1666 16.06 19.1766 15.6475 18.5991 16.225L16.225 18.5992C15.6566 19.1767 16.06 20.1667 16.8758 20.1667Z" stroke="#E1E1E1" stroke-width="1.5" stroke-linecap="round" stroke-linejoin="round"/>
</svg>
