<svg width="21" height="33" viewBox="0 0 21 33" fill="none" xmlns="http://www.w3.org/2000/svg">
<path d="M1.37624 11.4815L1 13.5074V33H20V6.52113L19.7492 6.81054L19.4357 3.04821L19.1848 4.78467L19.1221 7.65642L18.6832 4.76233L18.5578 6.20938L18.4324 4.76233L18.1188 7.65642L17.868 3.8941L17.5545 7.07761L17.3663 3.8941L16.8647 5.34115L16.4257 1L16.2376 9.39288L16.1122 16.3387L15.7987 14.7672L15.2343 16.2142L14.8581 13.899L14.7954 17.3719L14.4191 15.6354L13.7294 19.3977L13.4786 22.8707L13.1023 17.9507L12.538 18.5295L12.1617 16.5036L11.9736 17.6613L11.6601 14.7672L11.3465 16.2142L10.9703 15.6354L10.7195 12.4519L10.1551 16.793L9.77888 13.3201C9.75798 13.9954 9.71618 15.4039 9.71618 15.6354C9.71618 15.8669 9.63257 15.1531 9.59076 14.7672L9.15182 16.793L8.77558 16.2142C8.71287 16.6966 8.58746 17.7192 8.58746 17.9507C8.58746 18.1822 8.42024 16.8895 8.33664 16.2142L8.0231 18.5295L7.64687 16.5036L7.27063 17.3719L7.14522 14.7672L6.83169 17.3719L6.58086 15.0566L6.39274 19.3977L6.0165 17.9507L5.45215 20.8448L4.82508 16.5036V20.8448C4.82508 21.0763 4.57426 15.8227 4.44885 17.8485L4.19802 18.6944L3.32013 12.9062L3.13201 16.0897C3.0066 15.125 2.69307 12.9062 2.69307 12.9062C2.69307 12.9062 2.46315 14.5462 2.37954 15.5109L1.81518 12.038L1.56436 15.5109L1.37624 11.4815Z" fill="url(#paint0_linear_3_1054)"/>
<path d="M1 14.1267L1.37624 12.0006L1.56436 16.2295L1.81518 12.5846L2.37954 16.2295C2.46315 15.217 2.64764 13.7708 2.69307 13.4958C2.73478 13.2433 3.0066 15.8245 3.13201 16.837L3.32013 13.4958L4.19802 19.5706L4.44885 18.6829C4.57426 16.5567 4.82508 22.0705 4.82508 21.8275C4.82508 21.5845 4.82508 18.6888 4.82508 17.2714L5.45215 21.8275L6.0165 18.7901L6.39274 20.3088L6.58086 15.7527L6.83169 18.1826L7.14522 15.4489L7.27063 18.1826L7.64687 17.2714L8.0231 19.3975L8.33664 16.9676C8.42024 17.6763 8.58746 19.0331 8.58746 18.7901C8.58746 18.5471 8.71287 17.4738 8.77558 16.9676L9.15182 17.5751L9.59076 15.4489C9.63257 15.8539 9.71618 16.6031 9.71618 16.3601C9.71618 16.1171 9.75798 14.6389 9.77888 13.9302L10.1551 17.5751L10.7195 13.019L10.9703 16.3601L11.3465 16.9676L11.6601 15.4489L11.9736 18.4863L12.1617 17.2714L12.538 19.3975L13.1023 18.7901L13.4786 23.9537L13.7294 20.3088L14.4191 16.3601L14.7954 18.1826L14.8581 14.5377L15.2343 16.9676L15.7987 15.4489L16.1122 17.0983L16.2376 9.80849L16.4257 1L16.8647 5.55611L17.3663 4.03741L17.5545 7.37856L17.868 4.03741L18.1188 7.98604L18.4324 4.94863L18.5578 6.46734L18.6832 4.94863L19.1221 7.98604L19.1848 4.97208L19.4357 3.14964L19.7492 7.09827L20 6.79453" stroke="#2DC24E"/>
<defs>
<linearGradient id="paint0_linear_3_1054" x1="16.4885" y1="0.296882" x2="16.4884" y2="27.7908" gradientUnits="userSpaceOnUse">
<stop stop-color="#2DC24E"/>
<stop offset="1" stop-color="#2DC24E" stop-opacity="0"/>
</linearGradient>
</defs>
</svg>
