<svg width="12" height="14" viewBox="0 0 12 14" fill="none" xmlns="http://www.w3.org/2000/svg">
<path d="M6.86502 2.04756L7.74501 4.10089C7.86502 4.38673 8.18501 4.66089 8.45501 4.71339L10.05 5.02256C11.07 5.22089 11.31 6.08423 10.575 6.93589L9.33501 8.38256C9.12501 8.62756 9.01001 9.10006 9.07501 9.43839L9.43001 11.2292C9.71001 12.6467 9.06501 13.1951 7.99001 12.4542L6.49502 11.4217C6.22502 11.2351 5.78002 11.2351 5.50502 11.4217L4.01002 12.4542C2.94002 13.1951 2.29002 12.6409 2.57002 11.2292L2.92502 9.43839C2.99002 9.10006 2.87502 8.62756 2.66502 8.38256L1.42502 6.93589C0.695016 6.08423 0.930016 5.22089 1.95002 5.02256L3.54502 4.71339C3.81002 4.66089 4.13002 4.38673 4.25002 4.10089L5.13002 2.04756C5.61002 0.933394 6.39001 0.933394 6.86502 2.04756Z" fill="#F1CF24"/>
</svg>
